name C:\Users\u0101727\Documents\MyRepositories\upper-imu-dc\Results\main_tracking\Case_24\SHRUG01_orientations_groundFrame.mot
datacolumns 13
datarows 36
range 1.76000000 2.11000000
endheader 
time	radius_imu_[0][0]	radius_imu_[0][1]	radius_imu_[0][2]	radius_imu_[1][0]	radius_imu_[1][1]	radius_imu_[1][2]	radius_imu_[2][0]	radius_imu_[2][1]	radius_imu_[2][2]	radius_imu_x	radius_imu_y	radius_imu_z	
          1.76000000	          0.35663824	         -0.23531422	          0.90412189	         -0.32617380	          0.87549952	          0.35652664	         -0.87545406	         -0.42205190	          0.23548327	         -0.98708014	          1.12932008	          0.58324210	
          1.77000000	          0.35462234	         -0.23590484	          0.90476069	         -0.32546794	          0.87598837	          0.35597049	         -0.87653501	         -0.42070569	          0.23386558	         -0.98952971	          1.13081752	          0.58700620	
          1.78000000	          0.35265622	         -0.23629837	          0.90542624	         -0.32480532	          0.87652107	          0.35526374	         -0.87757341	         -0.41937322	          0.23235964	         -0.99158049	          1.13238273	          0.59034335	
          1.79000000	          0.35091914	         -0.23648959	          0.90605101	         -0.32407495	          0.87711894	          0.35445422	         -0.87853924	         -0.41801320	          0.23115747	         -0.99291087	          1.13385682	          0.59300376	
          1.80000000	          0.34910572	         -0.23676177	          0.90668024	         -0.32310607	          0.87780864	          0.35363041	         -0.87961791	         -0.41640829	          0.22994885	         -0.99424403	          1.13534615	          0.59594138	
          1.81000000	          0.34558401	         -0.23807846	          0.90768405	         -0.32167842	          0.87861562	          0.35292718	         -0.88152974	         -0.41394836	          0.22705080	         -0.99912000	          1.13773199	          0.60324845	
          1.82000000	          0.35694419	         -0.23289508	          0.90462740	         -0.31955469	          0.87955049	          0.35252765	         -0.87776742	         -0.41491062	          0.23952772	         -0.97399041	          1.13050468	          0.57810906	
          1.83000000	          0.35697392	         -0.23371050	          0.90440534	         -0.31659224	          0.88062207	          0.35252534	         -0.87882818	         -0.41217007	          0.24036819	         -0.97235806	          1.12998395	          0.57967152	
          1.84000000	          0.36622746	         -0.23076415	          0.90145735	         -0.31280426	          0.88185434	          0.35282632	         -0.87637374	         -0.41119439	          0.25077527	         -0.95288452	          1.12312453	          0.56226659	
          1.85000000	          0.37643619	         -0.22784735	          0.89798741	         -0.30828566	          0.88323936	          0.35333862	         -0.87364509	         -0.40984608	          0.26224119	         -0.93231823	          1.11517409	          0.54428904	
          1.86000000	          0.40265513	         -0.21758922	          0.88911404	         -0.30326463	          0.88476551	          0.35386517	         -0.86365468	         -0.41212247	          0.29026825	         -0.88381173	          1.09540578	          0.49543212	
          1.87000000	          0.40204574	         -0.21995126	          0.88880856	         -0.29804106	          0.88641483	          0.35417548	         -0.86575444	         -0.40729619	          0.29082481	         -0.88330220	          1.09473877	          0.50059874	
          1.88000000	          0.41391478	         -0.21613248	          0.88428576	         -0.29290835	          0.88812442	          0.35417469	         -0.86190443	         -0.40561282	          0.30430082	         -0.86099524	          1.08496219	          0.48122324	
          1.89000000	          0.42447446	         -0.21249216	          0.88015255	         -0.28813133	          0.88983915	          0.35378894	         -0.85837158	         -0.40377390	          0.31648835	         -0.84099033	          1.07618347	          0.46412796	
          1.90000000	          0.43278783	         -0.20933171	          0.87685514	         -0.28389815	          0.89152828	          0.35295774	         -0.85562640	         -0.40169336	          0.32641371	         -0.82444975	          1.06928114	          0.45050825	
          1.91000000	          0.43842341	         -0.20685356	          0.87464079	         -0.28024574	          0.89317427	          0.35171304	         -0.85395974	         -0.39931358	          0.33361868	         -0.81179437	          1.06469434	          0.44084426	
          1.92000000	          0.44144432	         -0.20517488	          0.87351599	         -0.27706045	          0.89476770	          0.35018319	         -0.85344269	         -0.39660311	          0.33814427	         -0.80288648	          1.06237890	          0.43507749	
          1.93000000	          0.44226053	         -0.20435326	          0.87329569	         -0.27413049	          0.89630119	          0.34856369	         -0.85396610	         -0.39355294	          0.34037918	         -0.79727742	          1.06192654	          0.43284205	
          1.94000000	          0.44150644	         -0.20439334	          0.87366780	         -0.27120875	          0.89776262	          0.34708513	         -0.85528819	         -0.39018667	          0.34093472	         -0.79433723	          1.06269085	          0.43356695	
          1.95000000	          0.43992436	         -0.20526218	          0.87426197	         -0.26805668	          0.89913246	          0.34598617	         -0.85709519	         -0.38655951	          0.34052838	         -0.79334800	          1.06391344	          0.43656022	
          1.96000000	          0.43827087	         -0.20689320	          0.87470787	         -0.26447515	          0.90038620	          0.34548167	         -0.85905270	         -0.38275304	          0.33989493	         -0.79354932	          1.06483271	          0.44105253	
          1.97000000	          0.43720439	         -0.20918470	          0.87469657	         -0.26033273	          0.90150176	          0.34571873	         -0.86085957	         -0.37886189	          0.33968290	         -0.79420421	          1.06480940	          0.44626739	
          1.98000000	          0.43706985	         -0.21201446	          0.87408227	         -0.25560467	          0.90247292	          0.34671153	         -0.86234344	         -0.37495667	          0.34025182	         -0.79480118	          1.06354340	          0.45164167	
          1.99000000	          0.43751078	         -0.21530804	          0.87305599	         -0.25041572	          0.90332960	          0.34826369	         -0.86364130	         -0.37099606	          0.34129992	         -0.79549663	          1.06143475	          0.45732419	
          2.00000000	          0.43710982	         -0.21911217	          0.87231007	         -0.24507967	          0.90415309	          0.34991878	         -0.86537330	         -0.36673840	          0.34151426	         -0.79755279	          1.05990712	          0.46466698	
          2.01000000	          0.45900213	         -0.21261425	          0.86261940	         -0.24028687	          0.90504753	          0.35092903	         -0.85532407	         -0.36835328	          0.36433033	         -0.76666407	          1.04042521	          0.43378467	
          2.02000000	          0.49854967	         -0.19623824	          0.84435702	         -0.23659096	          0.90625665	          0.35031929	         -0.83395020	         -0.37441881	          0.40538576	         -0.71265905	          1.00536395	          0.37499277	
          2.03000000	          0.46822044	         -0.20813537	          0.85874867	         -0.23434243	          0.90781051	          0.34779837	         -0.85197021	         -0.36408756	          0.37628049	         -0.74608278	          1.03282255	          0.41829102	
          2.04000000	          0.46286867	         -0.20880957	          0.86148195	         -0.23218883	          0.90936594	          0.34516944	         -0.85547703	         -0.35979461	          0.37243375	         -0.74742285	          1.03818094	          0.42378539	
          2.05000000	          0.47800203	         -0.20129762	          0.85498148	         -0.22990122	          0.91077916	          0.34296757	         -0.84773787	         -0.36050048	          0.38907571	         -0.72249572	          1.02551513	          0.39858216	
          2.06000000	          0.47826804	         -0.20069452	          0.85497450	         -0.22712394	          0.91215088	          0.34116784	         -0.84833625	         -0.35735485	          0.39067008	         -0.71786005	          1.02550166	          0.39731148	
          2.07000000	          0.49347851	         -0.19403401	          0.84783829	         -0.22419611	          0.91347862	          0.33954810	         -0.84036603	         -0.35764174	          0.40728040	         -0.69495236	          1.01189517	          0.37462754	
          2.08000000	          0.49728369	         -0.19224421	          0.84602074	         -0.22101597	          0.91489811	          0.33780674	         -0.83896416	         -0.35496988	          0.41247487	         -0.68620464	          1.00847681	          0.36889164	
          2.09000000	          0.50947262	         -0.18641173	          0.84005257	         -0.21798187	          0.91644948	          0.33556558	         -0.83241910	         -0.35407771	          0.42627154	         -0.66689389	          0.99738011	          0.35076137	
          2.10000000	          0.52153379	         -0.17975864	          0.83407993	         -0.21526227	          0.91821169	          0.33248976	         -0.82562985	         -0.35295059	          0.44018318	         -0.64691256	          0.98646281	          0.33192135	
          2.11000000	          0.52274084	         -0.17720853	          0.83386998	         -0.21261075	          0.92014678	          0.32882606	         -0.82555356	         -0.34918053	          0.44332186	         -0.63818863	          0.98608233	          0.32684081	
